<svg width="512" height="512" xmlns="http://www.w3.org/2000/svg">

	<g>
		<title>background</title>
		<rect fill="none" id="canvas_background" height="402" width="582" y="-1" x="-1"/>
	</g>
	<g>
		<title>Layer 1</title>
		<g id="svg_1">
			<g id="svg_2">
				<path id="svg_3" d="m122.551,278.402c-12.566,0 -22.789,10.222 -22.789,22.787s10.223,22.787 22.789,22.787c12.565,0 22.787,-10.222 22.787,-22.787s-10.223,-22.787 -22.787,-22.787zm0,30.547c-4.278,0 -7.759,-3.481 -7.759,-7.758s3.481,-7.758 7.759,-7.758c4.278,0 7.758,3.481 7.758,7.758s-3.481,7.758 -7.758,7.758z"/>
			</g>
		</g>
		<g id="svg_13">
			<g id="svg_14">
				<path id="svg_15" d="m451.167,189.098c7.762,-6.246 12.737,-15.823 12.737,-26.538c0,-18.777 -15.276,-34.053 -34.052,-34.053l-120.876,0c3.757,-8.192 8.094,-20.671 10.573,-38.018c5.758,-40.309 -2.943,-61.705 -11.256,-72.556c-7.036,-9.184 -16.489,-14.738 -27.335,-16.06c-9.152,-1.124 -17.509,6.145 -17.753,15.339c-1.407,14.454 -6.554,54.107 -13.926,68.853c-18.939,37.878 -64.093,60.461 -78.039,66.709c-4.88,-4.194 -11.218,-6.737 -18.142,-6.737l-61.094,0c-15.372,0 -27.878,12.505 -27.878,27.878l0,152.731c0,15.373 12.506,27.878 27.878,27.878l61.092,0c8.225,0 15.628,-3.583 20.734,-9.267c7.931,5.007 20.731,10.585 38.408,10.585l196.383,0c18.777,0 34.052,-15.276 34.052,-34.052c0,-8.607 -3.21,-16.479 -8.496,-22.481c11.308,-5.545 19.11,-17.178 19.11,-30.597c0,-8.607 -3.21,-16.478 -8.496,-22.481c11.308,-5.544 19.11,-17.177 19.11,-30.596c0.003,-10.714 -4.973,-20.291 -12.734,-26.537zm-298.071,150.396l-61.092,0c-7.085,0 -12.849,-5.764 -12.849,-12.849l0,-152.731c0,-7.085 5.764,-12.849 12.849,-12.849l61.092,0c3.588,0 6.833,1.482 9.166,3.862l0,167.58c0,0.899 0.163,1.781 0.471,2.609c-2.357,2.677 -5.798,4.378 -9.637,4.378zm245.183,-142.882l31.576,0c10.49,0 19.023,8.535 19.023,19.023s-8.534,19.023 -19.023,19.023l-31.576,0c-4.15,0 -7.515,3.364 -7.515,7.515c0,4.151 3.365,7.515 7.515,7.515l20.96,0c10.49,0 19.023,8.535 19.023,19.023c0,10.488 -8.534,19.023 -19.023,19.023l-26.721,0c-4.15,0 -7.515,3.364 -7.515,7.515c0,4.151 3.365,7.515 7.515,7.515l16.105,0c10.489,0 19.023,8.535 19.023,19.024c0,10.489 -8.534,19.023 -19.023,19.023l-196.383,0c-15.51,0 -26.025,-5.196 -31.734,-9.097c0.304,-1.646 0.471,-3.339 0.471,-5.071l0,-152.729c0,-2.938 -0.46,-5.769 -1.306,-8.429c17.608,-8.081 62.687,-31.974 83.05,-72.699c10.185,-20.369 15.263,-72.239 15.474,-74.437c0.022,-0.238 0.034,-0.479 0.034,-0.718c0,-0.256 0.098,-0.474 0.291,-0.644c0.27,-0.237 0.53,-0.207 0.617,-0.196c4.704,0.574 11.511,2.824 17.226,10.282c6.561,8.564 13.328,26.149 8.308,61.291c-4.255,29.787 -14.344,42.818 -14.407,42.899c-3.939,4.814 -0.392,12.274 5.815,12.274l133.775,0c10.49,0 19.023,8.535 19.023,19.024c0,10.49 -8.534,19.023 -19.023,19.023l-31.576,0c-4.15,0 -7.515,3.364 -7.515,7.515s3.365,7.513 7.516,7.513z"/>
			</g>
		</g>
		<g id="svg_16"/>
		<g id="svg_17"/>
		<g id="svg_18"/>
		<g id="svg_19"/>
		<g id="svg_20"/>
		<g id="svg_21"/>
		<g id="svg_22"/>
		<g id="svg_23"/>
		<g id="svg_24"/>
		<g id="svg_25"/>
		<g id="svg_26"/>
		<g id="svg_27"/>
		<g id="svg_28"/>
		<g id="svg_29"/>
		<g id="svg_30"/>
		<path stroke="#000000" id="svg_32" d="m13.16187,419.34375l54.24082,0l16.76083,-53.85861l16.76084,53.85861l54.24081,0l-43.88167,33.28607l16.7617,53.85861l-43.88169,-33.28698l-43.88168,33.28698l16.7617,-53.85861l-43.88168,-33.28607z" stroke-width="1.5" fill="#000000"/>
		<path stroke="#000000" id="svg_35" d="m351.16977,419.34374l54.24082,0l16.76084,-53.85861l16.76084,53.85861l54.24081,0l-43.88167,33.28607l16.7617,53.85862l-43.88168,-33.28698l-43.88168,33.28698l16.7617,-53.85862l-43.88168,-33.28607z" stroke-width="1.5" fill="#000000"/>
		<path stroke="#000000" id="svg_36" d="m183.16584,419.34376l54.24082,0l16.76084,-53.85861l16.76084,53.85861l54.24081,0l-43.88167,33.28607l16.7617,53.85861l-43.88168,-33.28697l-43.88168,33.28697l16.7617,-53.85861l-43.88168,-33.28607z" stroke-width="1.5" fill="#000000"/>
	</g>
</svg>